<?xml version='1.0' encoding='utf8'?>
<svg class="toyplot-canvas-Canvas" xmlns:toyplot="http://www.sandia.gov/toyplot" xmlns:xlink="http://www.w3.org/1999/xlink" xmlns="http://www.w3.org/2000/svg" width="1000.0px" height="930.0px" viewBox="0 0 1000.0 930.0" preserveAspectRatio="xMidYMid meet" style="background-color:transparent;border-color:#292724;border-style:none;border-width:1.0;fill:rgb(16.1%,15.3%,14.1%);fill-opacity:1.0;font-family:Helvetica;font-size:12px;opacity:1.0;stroke:rgb(16.1%,15.3%,14.1%);stroke-opacity:1.0;stroke-width:1.0" id="t2e6e6399fef2482d8baf137e66d1c93b"><g class="toyplot-coordinates-Cartesian" id="t4e853102e9ca4376b3d1d9557f7e5acb"><clipPath id="t05d907ab122b489a818eb3c861cfbf8b"><rect x="30.0" y="30.0" width="940.0" height="870.0" /></clipPath><g clip-path="url(#t05d907ab122b489a818eb3c861cfbf8b)"><g class="toytree-mark-Toytree" id="td36d1ee07521458f957b5130aa3c0acb"><g class="toytree-Edges" style="fill:none;stroke:rgb(14.9%,14.9%,14.9%);stroke-linecap:round;stroke-opacity:1;stroke-width:2"><path d="M 51.4 108.5 L 51.4 154.7 L 117.6 154.7" id="102,101" /><path d="M 117.6 154.7 L 117.6 231.5 L 162.0 231.5" id="101,100" /><path d="M 162.0 231.5 L 162.0 119.5 L 268.4 119.5" id="100,99" /><path d="M 162.0 231.5 L 162.0 343.4 L 192.0 343.4" id="100,98" /><path d="M 268.4 119.5 L 268.4 101.7 L 414.0 101.7" id="99,97" /><path d="M 268.4 119.5 L 268.4 137.3 L 505.6 137.3" id="99,96" /><path d="M 192.0 343.4 L 192.0 190.9 L 282.6 190.9" id="98,95" /><path d="M 192.0 343.4 L 192.0 495.9 L 234.7 495.9" id="98,94" /><path d="M 505.6 137.3 L 505.6 149.1 L 602.5 149.1" id="96,93" /><path d="M 282.6 190.9 L 282.6 209.1 L 334.0 209.1" id="95,92" /><path d="M 234.7 495.9 L 234.7 566.3 L 264.6 566.3" id="94,91" /><path d="M 334.0 209.1 L 334.0 229.5 L 471.7 229.5" id="92,90" /><path d="M 264.6 566.3 L 264.6 475.1 L 461.6 475.1" id="91,89" /><path d="M 264.6 566.3 L 264.6 657.5 L 289.6 657.5" id="91,88" /><path d="M 471.7 229.5 L 471.7 254.7 L 493.8 254.7" id="90,87" /><path d="M 461.6 475.1 L 461.6 508.9 L 501.2 508.9" id="89,86" /><path d="M 289.6 657.5 L 289.6 626.9 L 540.0 626.9" id="88,85" /><path d="M 289.6 657.5 L 289.6 688.2 L 444.6 688.2" id="88,84" /><path d="M 493.8 254.7 L 493.8 228.1 L 521.1 228.1" id="87,83" /><path d="M 493.8 254.7 L 493.8 281.3 L 537.8 281.3" id="87,82" /><path d="M 501.2 508.9 L 501.2 470.9 L 581.9 470.9" id="86,81" /><path d="M 501.2 508.9 L 501.2 546.9 L 515.7 546.9" id="86,80" /><path d="M 540.0 626.9 L 540.0 638.7 L 616.5 638.7" id="85,79" /><path d="M 444.6 688.2 L 444.6 713.9 L 558.2 713.9" id="84,78" /><path d="M 537.8 281.3 L 537.8 310.8 L 554.9 310.8" id="82,77" /><path d="M 581.9 470.9 L 581.9 484.7 L 628.5 484.7" id="81,76" /><path d="M 515.7 546.9 L 515.7 528.2 L 561.3 528.2" id="80,75" /><path d="M 515.7 546.9 L 515.7 565.7 L 547.0 565.7" id="80,74" /><path d="M 558.2 713.9 L 558.2 686.1 L 627.0 686.1" id="78,73" /><path d="M 558.2 713.9 L 558.2 741.7 L 568.6 741.7" id="78,72" /><path d="M 554.9 310.8 L 554.9 279.4 L 575.5 279.4" id="77,71" /><path d="M 554.9 310.8 L 554.9 342.1 L 564.6 342.1" id="77,70" /><path d="M 628.5 484.7 L 628.5 496.6 L 638.4 496.6" id="76,69" /><path d="M 547.0 565.7 L 547.0 579.5 L 635.7 579.5" id="74,68" /><path d="M 568.6 741.7 L 568.6 773.5 L 580.7 773.5" id="72,67" /><path d="M 575.5 279.4 L 575.5 291.3 L 599.2 291.3" id="71,66" /><path d="M 564.6 342.1 L 564.6 322.8 L 599.3 322.8" id="70,65" /><path d="M 564.6 342.1 L 564.6 361.3 L 586.7 361.3" id="70,64" /><path d="M 635.7 579.5 L 635.7 591.4 L 642.1 591.4" id="68,63" /><path d="M 580.7 773.5 L 580.7 737.5 L 602.8 737.5" id="67,62" /><path d="M 580.7 773.5 L 580.7 809.5 L 590.8 809.5" id="67,61" /><path d="M 586.7 361.3 L 586.7 376.2 L 611.9 376.2" id="64,60" /><path d="M 602.8 737.5 L 602.8 749.3 L 623.7 749.3" id="62,59" /><path d="M 590.8 809.5 L 590.8 784.8 L 618.9 784.8" id="61,58" /><path d="M 590.8 809.5 L 590.8 834.2 L 602.0 834.2" id="61,57" /><path d="M 611.9 376.2 L 611.9 390.0 L 625.1 390.0" id="60,56" /><path d="M 618.9 784.8 L 618.9 796.7 L 641.6 796.7" id="58,55" /><path d="M 602.0 834.2 L 602.0 848.0 L 612.2 848.0" id="57,54" /><path d="M 625.1 390.0 L 625.1 401.8 L 639.4 401.8" id="56,53" /><path d="M 612.2 848.0 L 612.2 859.9 L 629.1 859.9" id="54,52" /><path d="M 51.4 108.5 L 51.4 62.2 L 316.7 62.2" id="102,51" /><path d="M 117.6 154.7 L 117.6 78.0 L 524.4 78.0" id="101,50" /><path d="M 414.0 101.7 L 414.0 93.8 L 414.0 93.8" id="97,49" /><path d="M 414.0 101.7 L 414.0 109.6 L 661.0 109.6" id="97,48" /><path d="M 505.6 137.3 L 505.6 125.4 L 505.7 125.4" id="96,47" /><path d="M 602.5 149.1 L 602.5 141.2 L 661.0 141.2" id="93,46" /><path d="M 602.5 149.1 L 602.5 157.0 L 661.0 157.0" id="93,45" /><path d="M 282.6 190.9 L 282.6 172.8 L 408.7 172.8" id="95,44" /><path d="M 334.0 209.1 L 334.0 188.6 L 334.0 188.6" id="92,43" /><path d="M 471.7 229.5 L 471.7 204.4 L 661.0 204.4" id="90,42" /><path d="M 521.1 228.1 L 521.1 220.2 L 661.0 220.2" id="83,41" /><path d="M 521.1 228.1 L 521.1 236.0 L 661.0 236.0" id="83,40" /><path d="M 537.8 281.3 L 537.8 251.8 L 660.9 251.8" id="82,39" /><path d="M 575.5 279.4 L 575.5 267.6 L 660.9 267.6" id="71,38" /><path d="M 599.2 291.3 L 599.2 283.4 L 660.9 283.4" id="66,37" /><path d="M 599.2 291.3 L 599.2 299.2 L 661.2 299.2" id="66,36" /><path d="M 599.3 322.8 L 599.3 314.9 L 661.0 314.9" id="65,35" /><path d="M 599.3 322.8 L 599.3 330.7 L 661.0 330.7" id="65,34" /><path d="M 586.7 361.3 L 586.7 346.5 L 661.0 346.5" id="64,33" /><path d="M 611.9 376.2 L 611.9 362.3 L 660.7 362.3" id="60,32" /><path d="M 625.1 390.0 L 625.1 378.1 L 660.9 378.1" id="56,31" /><path d="M 639.4 401.8 L 639.4 393.9 L 661.2 393.9" id="53,30" /><path d="M 639.4 401.8 L 639.4 409.7 L 661.2 409.7" id="53,29" /><path d="M 234.7 495.9 L 234.7 425.5 L 561.4 425.5" id="94,28" /><path d="M 461.6 475.1 L 461.6 441.3 L 495.5 441.3" id="89,27" /><path d="M 581.9 470.9 L 581.9 457.1 L 582.0 457.1" id="81,26" /><path d="M 628.5 484.7 L 628.5 472.9 L 661.1 472.9" id="76,25" /><path d="M 638.4 496.6 L 638.4 488.7 L 660.8 488.7" id="69,24" /><path d="M 638.4 496.6 L 638.4 504.5 L 660.8 504.5" id="69,23" /><path d="M 561.3 528.2 L 561.3 520.3 L 561.4 520.3" id="75,22" /><path d="M 561.3 528.2 L 561.3 536.1 L 663.5 536.1" id="75,21" /><path d="M 547.0 565.7 L 547.0 551.9 L 547.1 551.9" id="74,20" /><path d="M 635.7 579.5 L 635.7 567.7 L 660.6 567.7" id="68,19" /><path d="M 642.1 591.4 L 642.1 583.5 L 661.2 583.5" id="63,18" /><path d="M 642.1 591.4 L 642.1 599.3 L 661.0 599.3" id="63,17" /><path d="M 540.0 626.9 L 540.0 615.1 L 540.1 615.1" id="85,16" /><path d="M 616.5 638.7 L 616.5 630.8 L 661.0 630.8" id="79,15" /><path d="M 616.5 638.7 L 616.5 646.6 L 661.0 646.6" id="79,14" /><path d="M 444.6 688.2 L 444.6 662.4 L 444.7 662.4" id="84,13" /><path d="M 627.0 686.1 L 627.0 678.2 L 661.0 678.2" id="73,12" /><path d="M 627.0 686.1 L 627.0 694.0 L 661.0 694.0" id="73,11" /><path d="M 568.6 741.7 L 568.6 709.8 L 661.0 709.8" id="72,10" /><path d="M 602.8 737.5 L 602.8 725.6 L 661.0 725.6" id="62,9" /><path d="M 623.7 749.3 L 623.7 741.4 L 661.0 741.4" id="59,8" /><path d="M 623.7 749.3 L 623.7 757.2 L 661.0 757.2" id="59,7" /><path d="M 618.9 784.8 L 618.9 773.0 L 660.9 773.0" id="58,6" /><path d="M 641.6 796.7 L 641.6 788.8 L 661.5 788.8" id="55,5" /><path d="M 641.6 796.7 L 641.6 804.6 L 660.6 804.6" id="55,4" /><path d="M 602.0 834.2 L 602.0 820.4 L 660.8 820.4" id="57,3" /><path d="M 612.2 848.0 L 612.2 836.2 L 661.0 836.2" id="54,2" /><path d="M 629.1 859.9 L 629.1 852.0 L 661.0 852.0" id="52,1" /><path d="M 629.1 859.9 L 629.1 867.8 L 661.2 867.8" id="52,0" /></g><g class="toytree-AlignEdges" style="stroke:rgb(66.3%,66.3%,66.3%);stroke-dasharray:2, 4;stroke-linecap:round;stroke-opacity:1.0;stroke-width:2"><path d="M 663.5 867.8 L 661.2 867.8" /><path d="M 663.5 852.0 L 661.0 852.0" /><path d="M 663.5 836.2 L 661.0 836.2" /><path d="M 663.5 820.4 L 660.8 820.4" /><path d="M 663.5 804.6 L 660.6 804.6" /><path d="M 663.5 788.8 L 661.5 788.8" /><path d="M 663.5 773.0 L 660.9 773.0" /><path d="M 663.5 757.2 L 661.0 757.2" /><path d="M 663.5 741.4 L 661.0 741.4" /><path d="M 663.5 725.6 L 661.0 725.6" /><path d="M 663.5 709.8 L 661.0 709.8" /><path d="M 663.5 694.0 L 661.0 694.0" /><path d="M 663.5 678.2 L 661.0 678.2" /><path d="M 663.5 662.4 L 444.7 662.4" /><path d="M 663.5 646.6 L 661.0 646.6" /><path d="M 663.5 630.8 L 661.0 630.8" /><path d="M 663.5 615.1 L 540.1 615.1" /><path d="M 663.5 599.3 L 661.0 599.3" /><path d="M 663.5 583.5 L 661.2 583.5" /><path d="M 663.5 567.7 L 660.6 567.7" /><path d="M 663.5 551.9 L 547.1 551.9" /><path d="M 663.5 536.1 L 663.5 536.1" /><path d="M 663.5 520.3 L 561.4 520.3" /><path d="M 663.5 504.5 L 660.8 504.5" /><path d="M 663.5 488.7 L 660.8 488.7" /><path d="M 663.5 472.9 L 661.1 472.9" /><path d="M 663.5 457.1 L 582.0 457.1" /><path d="M 663.5 441.3 L 495.5 441.3" /><path d="M 663.5 425.5 L 561.4 425.5" /><path d="M 663.5 409.7 L 661.2 409.7" /><path d="M 663.5 393.9 L 661.2 393.9" /><path d="M 663.5 378.1 L 660.9 378.1" /><path d="M 663.5 362.3 L 660.7 362.3" /><path d="M 663.5 346.5 L 661.0 346.5" /><path d="M 663.5 330.7 L 661.0 330.7" /><path d="M 663.5 314.9 L 661.0 314.9" /><path d="M 663.5 299.2 L 661.2 299.2" /><path d="M 663.5 283.4 L 660.9 283.4" /><path d="M 663.5 267.6 L 660.9 267.6" /><path d="M 663.5 251.8 L 660.9 251.8" /><path d="M 663.5 236.0 L 661.0 236.0" /><path d="M 663.5 220.2 L 661.0 220.2" /><path d="M 663.5 204.4 L 661.0 204.4" /><path d="M 663.5 188.6 L 334.0 188.6" /><path d="M 663.5 172.8 L 408.7 172.8" /><path d="M 663.5 157.0 L 661.0 157.0" /><path d="M 663.5 141.2 L 661.0 141.2" /><path d="M 663.5 125.4 L 505.7 125.4" /><path d="M 663.5 109.6 L 661.0 109.6" /><path d="M 663.5 93.8 L 414.0 93.8" /><path d="M 663.5 78.0 L 524.4 78.0" /><path d="M 663.5 62.2 L 316.7 62.2" /></g><g class="toytree-TipLabels" style="fill:rgb(14.9%,14.9%,14.9%);fill-opacity:1.0;font-family:helvetica;font-size:11px;font-weight:normal;stroke:none;white-space:pre"><g transform="translate(663.54,867.77)rotate(0)"><a href="https://glottolog.org/resource/languoid/id/roma1326#############"><text x="15.00" y="2.81" style="" fill="#0000ff">Romansh - Romansh [roma1326#############]</text></a></g><g transform="translate(663.54,851.98)rotate(0)"><a href="https://glottolog.org/resource/languoid/id/friu1240#############"><text x="15.00" y="2.81" style="" fill="#0000ff">Friulian - Friulian [friu1240#############]</text></a></g><g transform="translate(663.54,836.18)rotate(0)"><a href="https://glottolog.org/resource/languoid/id/ladi1250#############"><text x="15.00" y="2.81" style="" fill="#0000ff">Ladin - Ladin [ladi1250#############]</text></a></g><g transform="translate(663.54,820.39)rotate(0)"><a href="https://glottolog.org/resource/languoid/id/ital1282#############"><text x="15.00" y="2.81" style="" fill="#0000ff">Italian - Italian [ital1282#############]</text></a></g><g transform="translate(663.54,804.59)rotate(0)"><a href="https://glottolog.org/resource/languoid/id/stan1290#############"><text x="15.00" y="2.81" style="" fill="#0000ff">French - French [stan1290#############]</text></a></g><g transform="translate(663.54,788.80)rotate(0)"><a href="https://glottolog.org/resource/languoid/id/wall1255#############"><text x="15.00" y="2.81" style="" fill="#0000ff">Walloon - Walloon [wall1255#############]</text></a></g><g transform="translate(663.54,773.00)rotate(0)"><a href="https://glottolog.org/resource/languoid/id/occi1239#############"><text x="15.00" y="2.81" style="" fill="#0000ff">Provencal - Occitan [occi1239#############]</text></a></g><g transform="translate(663.54,757.21)rotate(0)"><a href="https://glottolog.org/resource/languoid/id/port1283#############"><text x="15.00" y="2.81" style="" fill="#0000ff">Portuguese - Portuguese [port1283#############]</text></a></g><g transform="translate(663.54,741.41)rotate(0)"><a href="https://glottolog.org/resource/languoid/id/stan1288#############"><text x="15.00" y="2.81" style="" fill="#0000ff">Spanish - Spanish [stan1288#############]</text></a></g><g transform="translate(663.54,725.62)rotate(0)"><a href="https://glottolog.org/resource/languoid/id/stan1289#############"><text x="15.00" y="2.81" style="" fill="#0000ff">Catalan - Catalan [stan1289#############]</text></a></g><g transform="translate(663.54,709.82)rotate(0)"><a href="https://glottolog.org/resource/languoid/id/roma1327#############"><text x="15.00" y="2.81" style="" fill="#0000ff">Romanian - Romanian [roma1327#############]</text></a></g><g transform="translate(663.54,694.03)rotate(0)"><a href="https://glottolog.org/resource/languoid/id/camp1261#############"><text x="15.00" y="2.81" style="" fill="#0000ff">Cagliari - Campidanese Sardinian [camp1261#############]</text></a></g><g transform="translate(663.54,678.23)rotate(0)"><a href="https://glottolog.org/resource/languoid/id/nuor1238#############"><text x="15.00" y="2.81" style="" fill="#0000ff">Nuorese - Nuorese [nuor1238#############]</text></a></g><g transform="translate(663.54,662.44)rotate(0)"><a href="https://glottolog.org/resource/languoid/id/lati1261#############"><text x="15.00" y="2.81" style="" fill="#0000ff">Latin - Latin [lati1261#############]</text></a></g><g transform="translate(663.54,646.64)rotate(0)"><a href="https://glottolog.org/resource/languoid/id/scot1245#############"><text x="15.00" y="2.81" style="" fill="#0000ff">Scots_Gaelic - Scottish Gaelic [scot1245#############]</text></a></g><g transform="translate(663.54,630.85)rotate(0)"><a href="https://glottolog.org/resource/languoid/id/iris1253#############"><text x="15.00" y="2.81" style="" fill="#0000ff">Irish - Irish [iris1253#############]</text></a></g><g transform="translate(663.54,615.05)rotate(0)"><a href="https://glottolog.org/resource/languoid/id/oldi1245#############"><text x="15.00" y="2.81" style="" fill="#0000ff">Old_Irish - Early Irish [oldi1245#############]</text></a></g><g transform="translate(663.54,599.26)rotate(0)"><a href="https://glottolog.org/resource/languoid/id/swis1247#############"><text x="15.00" y="2.81" style="" fill="#0000ff">Swiss_German - Central Alemannic [swis1247#############]</text></a></g><g transform="translate(663.54,583.46)rotate(0)"><a href="https://glottolog.org/resource/languoid/id/luxe1241#############"><text x="15.00" y="2.81" style="" fill="#0000ff">Luxembourgish - Moselle Franconian [luxe1241#############]</text></a></g><g transform="translate(663.54,567.67)rotate(0)"><a href="https://glottolog.org/resource/languoid/id/stan1295#############"><text x="15.00" y="2.81" style="" fill="#0000ff">German - German [stan1295#############]</text></a></g><g transform="translate(663.54,551.87)rotate(0)"><a href="https://glottolog.org/resource/languoid/id/oldh1241#############"><text x="15.00" y="2.81" style="" fill="#0000ff">Old_High_German - Old High German (ca. 750-1050) [oldh1241#############]</text></a></g><g transform="translate(663.54,536.08)rotate(0)"><a href="https://glottolog.org/resource/languoid/id/stan1293#############"><text x="15.00" y="2.81" style="" fill="#0000ff">English - English [stan1293#############]</text></a></g><g transform="translate(663.54,520.28)rotate(0)"><a href="https://glottolog.org/resource/languoid/id/olde1238#############"><text x="15.00" y="2.81" style="" fill="#0000ff">Old_English - Old English (ca. 450-1100) [olde1238#############]</text></a></g><g transform="translate(663.54,504.49)rotate(0)"><a href="https://glottolog.org/resource/languoid/id/faro1244#############"><text x="15.00" y="2.81" style="" fill="#0000ff">Faroese - Faroese [faro1244#############]</text></a></g><g transform="translate(663.54,488.69)rotate(0)"><a href="https://glottolog.org/resource/languoid/id/icel1247#############"><text x="15.00" y="2.81" style="" fill="#0000ff">Icelandic - Icelandic [icel1247#############]</text></a></g><g transform="translate(663.54,472.90)rotate(0)"><a href="https://glottolog.org/resource/languoid/id/norw1258#############"><text x="15.00" y="2.81" style="" fill="#0000ff">Norwegian - Norwegian [norw1258#############]</text></a></g><g transform="translate(663.54,457.10)rotate(0)"><a href="https://glottolog.org/resource/languoid/id/oldn1244#############"><text x="15.00" y="2.81" style="" fill="#0000ff">Old_West_Norse - Old Norse [oldn1244#############]</text></a></g><g transform="translate(663.54,441.31)rotate(0)"><a href="https://glottolog.org/resource/languoid/id/goth1244#############"><text x="15.00" y="2.81" style="" fill="#0000ff">Gothic - Gothic [goth1244#############]</text></a></g><g transform="translate(663.54,425.51)rotate(0)"><a href="https://glottolog.org/resource/languoid/id/chur1257#############"><text x="15.00" y="2.81" style="" fill="#0000ff">Old_Church_Slavic - Church Slavic [chur1257#############]</text></a></g><g transform="translate(663.54,409.72)rotate(0)"><a href="https://glottolog.org/resource/languoid/id/west2386#############"><text x="15.00" y="2.81" style="" fill="#0000ff">Lahnda - Western Panjabi [west2386#############]</text></a></g><g transform="translate(663.54,393.92)rotate(0)"><a href="https://glottolog.org/resource/languoid/id/panj1256#############"><text x="15.00" y="2.81" style="" fill="#0000ff">Panjabi - Eastern Panjabi [panj1256#############]</text></a></g><g transform="translate(663.54,378.13)rotate(0)"><a href="https://glottolog.org/resource/languoid/id/urdu1245#############"><text x="15.00" y="2.81" style="" fill="#0000ff">Urdu - Urdu [urdu1245#############]</text></a></g><g transform="translate(663.54,362.33)rotate(0)"><a href="https://glottolog.org/resource/languoid/id/hind1269#############"><text x="15.00" y="2.81" style="" fill="#0000ff">Hindi - Hindi [hind1269#############]</text></a></g><g transform="translate(663.54,346.54)rotate(0)"><a href="https://glottolog.org/resource/languoid/id/mait1250#############"><text x="15.00" y="2.81" style="" fill="#0000ff">Bihari - Maithili [mait1250#############]</text></a></g><g transform="translate(663.54,330.74)rotate(0)"><a href="https://glottolog.org/resource/languoid/id/guja1252#############"><text x="15.00" y="2.81" style="" fill="#0000ff">Gujarati - Gujarati [guja1252#############]</text></a></g><g transform="translate(663.54,314.95)rotate(0)"><a href="https://glottolog.org/resource/languoid/id/mara1378#############"><text x="15.00" y="2.81" style="" fill="#0000ff">Marathi - Marathi [mara1378#############]</text></a></g><g transform="translate(663.54,299.15)rotate(0)"><a href="https://glottolog.org/resource/languoid/id/assa1263#############"><text x="15.00" y="2.81" style="" fill="#0000ff">Assamese - Assamese [assa1263#############]</text></a></g><g transform="translate(663.54,283.36)rotate(0)"><a href="https://glottolog.org/resource/languoid/id/oriy1255#############"><text x="15.00" y="2.81" style="" fill="#0000ff">Oriya - Odia [oriy1255#############]</text></a></g><g transform="translate(663.54,267.56)rotate(0)"><a href="https://glottolog.org/resource/languoid/id/beng1280#############"><text x="15.00" y="2.81" style="" fill="#0000ff">Bengali - Bengali [beng1280#############]</text></a></g><g transform="translate(663.54,251.77)rotate(0)"><a href="https://glottolog.org/resource/languoid/id/nepa1254#############"><text x="15.00" y="2.81" style="" fill="#0000ff">Nepali - Nepali [nepa1254#############]</text></a></g><g transform="translate(663.54,235.97)rotate(0)"><a href="https://glottolog.org/resource/languoid/id/sinh1246#############"><text x="15.00" y="2.81" style="" fill="#0000ff">Singhalese - Sinhala [sinh1246#############]</text></a></g><g transform="translate(663.54,220.18)rotate(0)"><a href="https://glottolog.org/resource/languoid/id/balk1252#############"><text x="15.00" y="2.81" style="" fill="#0000ff">Romani - Balkan Romani [balk1252#############]</text></a></g><g transform="translate(663.54,204.38)rotate(0)"><a href="https://glottolog.org/resource/languoid/id/kash1277#############"><text x="15.00" y="2.81" style="" fill="#0000ff">Kashmiri - Kashmiri [kash1277#############]</text></a></g><g transform="translate(663.54,188.59)rotate(0)"><a href="https://glottolog.org/resource/languoid/id/sans1269#############"><text x="15.00" y="2.81" style="" fill="#0000ff">Vedic_Sanskrit - Sanskrit [sans1269#############]</text></a></g><g transform="translate(663.54,172.79)rotate(0)"><a href="https://glottolog.org/resource/languoid/id/aves1237#############"><text x="15.00" y="2.81" style="" fill="#0000ff">Avestan - Avestan [aves1237#############]</text></a></g><g transform="translate(663.54,157.00)rotate(0)"><a href="https://glottolog.org/resource/languoid/id/nucl1235#############"><text x="15.00" y="2.81" style="" fill="#0000ff">Adapazar - Eastern Armenian [nucl1235#############]</text></a></g><g transform="translate(663.54,141.20)rotate(0)"><a href="https://glottolog.org/resource/languoid/id/nucl1235#############"><text x="15.00" y="2.81" style="" fill="#0000ff">Eastern_Armenian - Eastern Armenian [nucl1235#############]</text></a></g><g transform="translate(663.54,125.41)rotate(0)"><a href="https://glottolog.org/resource/languoid/id/clas1249#############"><text x="15.00" y="2.81" style="" fill="#0000ff">Classical_Armenian - Classical-Middle Armenian [clas1249#############]</text></a></g><g transform="translate(663.54,109.61)rotate(0)"><a href="https://glottolog.org/resource/languoid/id/mode1248#############"><text x="15.00" y="2.81" style="" fill="#0000ff">Modern_Greek - Modern Greek [mode1248#############]</text></a></g><g transform="translate(663.54,93.82)rotate(0)"><a href="https://glottolog.org/resource/languoid/id/anci1242#############"><text x="15.00" y="2.81" style="" fill="#0000ff">Ancient_Greek - Ionic-Attic Ancient Greek [anci1242#############]</text></a></g><g transform="translate(663.54,78.02)rotate(0)"><a href="https://glottolog.org/resource/languoid/id/tokh1243#############"><text x="15.00" y="2.81" style="" fill="#0000ff">Tocharian_B - Tokharian B [tokh1243#############]</text></a></g><g transform="translate(663.54,62.23)rotate(0)"><a href="https://glottolog.org/resource/languoid/id/hitt1242#############"><text x="15.00" y="2.81" style="" fill="#0000ff">Hittite - Hittite [hitt1242#############]</text></a></g></g></g></g><g class="toyplot-coordinates-Axis" id="t568a5a6301684cc981bae016d3279784" transform="translate(50.0,880.0)translate(0,20.0)"><line x1="1.3603880810776485" y1="0" x2="613.5350245660309" y2="0" style="" /><g><line x1="613.5350245660309" y1="0" x2="613.5350245660309" y2="-5" style="" /><line x1="545.515620512147" y1="0" x2="545.515620512147" y2="-5" style="" /><line x1="477.49621645826346" y1="0" x2="477.49621645826346" y2="-5" style="" /><line x1="409.47681240437976" y1="0" x2="409.47681240437976" y2="-5" style="" /><line x1="341.4574083504961" y1="0" x2="341.4574083504961" y2="-5" style="" /><line x1="273.4380042966124" y1="0" x2="273.4380042966124" y2="-5" style="" /><line x1="205.41860024272873" y1="0" x2="205.41860024272873" y2="-5" style="" /><line x1="137.39919618884508" y1="0" x2="137.39919618884508" y2="-5" style="" /><line x1="69.37979213496138" y1="0" x2="69.37979213496138" y2="-5" style="" /><line x1="1.3603880810776485" y1="0" x2="1.3603880810776485" y2="-5" style="" /></g><g><g transform="translate(613.5350245660309,6)"><text x="-2.78" y="8.555" style="fill:rgb(16.1%,15.3%,14.1%);fill-opacity:1.0;font-family:helvetica;font-size:10.0px;font-weight:normal;stroke:none;vertical-align:baseline;white-space:pre">0</text></g><g transform="translate(545.515620512147,6)"><text x="-8.34" y="8.555" style="fill:rgb(16.1%,15.3%,14.1%);fill-opacity:1.0;font-family:helvetica;font-size:10.0px;font-weight:normal;stroke:none;vertical-align:baseline;white-space:pre">668</text></g><g transform="translate(477.49621645826346,6)"><text x="-11.12" y="8.555" style="fill:rgb(16.1%,15.3%,14.1%);fill-opacity:1.0;font-family:helvetica;font-size:10.0px;font-weight:normal;stroke:none;vertical-align:baseline;white-space:pre">1335</text></g><g transform="translate(409.47681240437976,6)"><text x="-11.12" y="8.555" style="fill:rgb(16.1%,15.3%,14.1%);fill-opacity:1.0;font-family:helvetica;font-size:10.0px;font-weight:normal;stroke:none;vertical-align:baseline;white-space:pre">2003</text></g><g transform="translate(341.4574083504961,6)"><text x="-11.12" y="8.555" style="fill:rgb(16.1%,15.3%,14.1%);fill-opacity:1.0;font-family:helvetica;font-size:10.0px;font-weight:normal;stroke:none;vertical-align:baseline;white-space:pre">2670</text></g><g transform="translate(273.4380042966124,6)"><text x="-11.12" y="8.555" style="fill:rgb(16.1%,15.3%,14.1%);fill-opacity:1.0;font-family:helvetica;font-size:10.0px;font-weight:normal;stroke:none;vertical-align:baseline;white-space:pre">3338</text></g><g transform="translate(205.41860024272873,6)"><text x="-11.12" y="8.555" style="fill:rgb(16.1%,15.3%,14.1%);fill-opacity:1.0;font-family:helvetica;font-size:10.0px;font-weight:normal;stroke:none;vertical-align:baseline;white-space:pre">4005</text></g><g transform="translate(137.39919618884508,6)"><text x="-11.12" y="8.555" style="fill:rgb(16.1%,15.3%,14.1%);fill-opacity:1.0;font-family:helvetica;font-size:10.0px;font-weight:normal;stroke:none;vertical-align:baseline;white-space:pre">4673</text></g><g transform="translate(69.37979213496138,6)"><text x="-11.12" y="8.555" style="fill:rgb(16.1%,15.3%,14.1%);fill-opacity:1.0;font-family:helvetica;font-size:10.0px;font-weight:normal;stroke:none;vertical-align:baseline;white-space:pre">5340</text></g><g transform="translate(1.3603880810776485,6)"><text x="-11.12" y="8.555" style="fill:rgb(16.1%,15.3%,14.1%);fill-opacity:1.0;font-family:helvetica;font-size:10.0px;font-weight:normal;stroke:none;vertical-align:baseline;white-space:pre">6008</text></g></g><g class="toyplot-coordinates-Axis-coordinates" style="visibility:hidden" transform=""><line x1="0" x2="0" y1="-3.0" y2="4.5" style="stroke:rgb(43.9%,50.2%,56.5%);stroke-opacity:1.0;stroke-width:1.0" /><text x="0" y="-6" style="alignment-baseline:alphabetic;fill:rgb(43.9%,50.2%,56.5%);fill-opacity:1.0;font-size:10px;font-weight:normal;stroke:none;text-anchor:middle" /></g></g><g transform="translate(500.0,42.0)"><text x="-295.267" y="-4.823" style="fill:rgb(16.1%,15.3%,14.1%);fill-opacity:1.0;font-family:helvetica;font-size:14.0px;font-weight:bold;stroke:none;vertical-align:baseline;white-space:pre">Summary tree of a Bayesian analysis of the Indo-European family with branches in years</text></g></g></svg>